<?xml version="1.0" encoding="utf-8"?>
<!-- Generator: Adobe Illustrator 23.0.0, SVG Export Plug-In . SVG Version: 6.00 Build 0)  -->
<svg version="1.1" id="Layer_1" xmlns="http://www.w3.org/2000/svg" xmlns:xlink="http://www.w3.org/1999/xlink" x="0px" y="0px"
	 viewBox="0 0 1280 800" style="enable-background:new 0 0 1280 800;" xml:space="preserve">
<style type="text/css">
	.st0{fill:#2A0D44;}
	.st1{fill:#02DF87;}
	.st2{fill:#FFFFFF;}
</style>
<g>
	<path class="st0" d="M461.48,462.71c0.08,0.11,0.21,0.21,0.25,0.34c1.8,5.69,4.59,10.88,7.95,15.78c1.01,1.47,1.69,3.09,2.59,4.6
		c0.57,0.97,0.38,1.74-0.27,2.57c-2.12,2.7-4.8,4.72-7.59,6.66c-2.62,1.82-5.48,3.11-8.43,4.23c-11.1,4.23-22.5,5.07-34.2,3.22
		c-3.39-0.54-6.7-1.26-9.91-2.37c-4.92-1.7-9.51-4.1-13.65-7.25c-2.29-1.74-4.54-3.56-6.55-5.61c-4.93-5.03-9.08-10.67-12.21-17.02
		c-1.85-3.76-3.41-7.72-4.08-11.77c-0.64-3.86-1.31-7.81-1.23-11.8c0.04-1.78-0.04-3.57-0.03-5.35
		c0.09-39.74,0.19-79.49,0.29-119.23c0.01-3.74-0.24-3.23,3.1-2.81c6.06,0.77,11.7,2.75,16.32,6.91c4.01,3.61,6.19,8.33,7.56,13.45
		c1.1,4.09,1.41,8.29,1.43,12.51c0.06,12.73,0.11,25.47,0.18,38.2c0,0.87-0.19,1.78,0.25,2.71c3.4-0.5,6.68-1.56,10-2.43
		c5.56-1.46,11.15-2.65,16.92-2.96c8.69-0.47,16.96,1.19,24.97,4.5c5.37,2.22,10.39,5.04,15.04,8.49
		c6.56,4.86,11.31,11.17,14.46,18.68c3.07,7.32,4.52,15.06,5.89,22.83c0.85,4.84,1.74,9.66,3.24,14.37
		c3.19,10.01,10.04,15.92,20.04,18.44c2.02,0.51,4.12,0.73,6.19,1.03c1.91,0.28,1.94,0.25,1.96,2.27c0.05,7.95,0.09,15.9,0.11,23.85
		c0.01,1.85-0.03,1.88-1.93,1.81c-2.76-0.1-5.5-0.35-8.23-0.72c-6.53-0.87-12.65-2.91-18.4-6.08c-8.26-4.55-15.2-10.65-20.3-18.57
		c-3.59-5.57-6.45-11.57-8-18.1c-0.31-1.3-0.25-2.46,0.22-3.75c6.79-18.81-2.86-39.34-21.63-46.13
		c-21.44-7.76-44.63,6.23-47.79,28.83c-2.83,20.24,11.64,38.93,31.87,40.81c12.96,1.2,23.67-3.42,31.99-13.47
		c0.46-0.56,0.93-1.11,1.4-1.65C461.27,462.71,461.38,462.73,461.48,462.71z"/>
	<path class="st0" d="M580.05,497.16c-1.68,3.24-3.27,6.55-5.08,9.74c-2.54,4.46-5.14,8.88-7.95,13.19
		c-3.6,5.52-7.39,10.9-11.47,16.06c-5.07,6.41-10.49,12.52-16.34,18.24c-7.41,7.24-15.37,13.81-23.78,19.85
		c-3.92,2.82-8.1,5.23-12.11,7.91c-3.44,2.3-7.15,4.11-10.74,6.06c-3.2,1.73-6.52,3.44-10.01,4.73c-2.17,0.8-4.24,1.98-6.44,2.74
		c-3.41,1.18-6.81,2.43-10.19,3.69c-4.32,1.61-8.76,2.76-13.15,3.99c-5.71,1.61-11.6,2.69-17.49,3.59
		c-12.06,1.85-24.17,2.61-36.37,2.03c-8.36-0.4-16.61-1.57-24.82-3.13c-3.94-0.75-7.85-1.6-11.66-2.81
		c-5.82-1.85-11.47-4.06-16.96-6.81c-5.56-2.8-10.9-5.91-15.69-9.84c-4.85-3.97-9.36-8.29-12.98-13.52
		c-2.27-3.28-4.37-6.6-6.09-10.18c-0.11-0.24-0.22-0.4,0.08-0.82c1.9,1.16,3.83,2.34,5.76,3.52c10.99,6.73,22.75,11.67,35.23,14.81
		c15.29,3.85,30.81,4.83,46.49,3.33c12.53-1.2,24.71-4.03,36.52-8.31c11.8-4.28,22.99-9.8,33.67-16.44
		c6.04-3.76,11.78-7.91,17.39-12.23c2.57-1.97,4.99-4.21,7.47-6.33c3.86-3.31,7.38-6.97,11.03-10.49c2.6-2.51,4.76-5.49,7.15-8.23
		c5.42-6.22,9.92-13.12,14.56-19.9c1.06-1.55,2.02-3.22,2.87-4.9c0.56-1.12,1.19-1.05,2.08-1.02c6,0.14,12,0.27,18,0.41
		c9.65,0.23,19.3,0.47,28.95,0.71C578.62,496.8,579.28,496.65,580.05,497.16z"/>
	<path class="st1" d="M430.81,237.63c1.33-0.78,2.61-1.66,3.99-2.32c8.24-3.86,16.76-6.88,25.69-8.71
		c16.38-3.36,32.7-2.99,48.97,0.69c9.28,2.1,18.21,5.25,26.83,9.31c15.87,7.48,29.87,17.54,41.88,30.31
		c9.54,10.14,17.31,21.51,23.06,34.2c5.23,11.55,8.73,23.61,9.93,36.28c0.32,3.41,0.59,3.02-2.73,3.12
		c-12.4,0.37-24.8,0.68-37.2,1.01c-0.4,0.01-0.81,0.03-1.21-0.02c-0.57-0.07-1-0.16-1.04-0.99c-0.14-3.48-1.68-6.62-2.7-9.87
		c-0.7-2.23-1.36-4.5-2.02-6.74c-0.65-2.21-1.58-4.29-2.39-6.4c-1.94-5.01-3.91-10.03-6.51-14.74c-2.7-4.9-5.68-9.65-8.73-14.34
		c-2.95-4.53-6.61-8.46-10.08-12.54c-1.2-1.41-2.61-2.66-4.01-3.88c-2.85-2.51-5.65-5.08-8.65-7.39
		c-6.4-4.94-13.36-8.99-20.72-12.35c-13.38-6.1-27.45-9.73-41.96-11.79c-9.41-1.33-18.86-1.97-28.35-2.21
		c-0.64-0.02-1.28-0.08-1.92-0.13C430.91,237.98,430.86,237.81,430.81,237.63z"/>
	<path class="st0" d="M466.87,270.49c-6.91,0.22-13.73,1.16-20.46,2.68c-4.64,1.05-9.21,2.31-13.72,3.87
		c-9.82,3.4-19.19,7.7-28.04,13.1c-12.25,7.47-23.09,16.67-32.7,27.3c-6.33,6.99-11.85,14.62-16.55,22.81
		c-0.59,1.02-1.12,1.54-2.38,1.51c-12.65-0.33-25.3-0.6-37.95-0.9c-0.31-0.01-0.63-0.1-1.1-0.17c0.29-1.12,0.47-2.13,1.25-3.02
		c0.55-0.63,0.81-1.53,1.19-2.31c4.24-8.57,9.48-16.54,15.27-24.1c3.21-4.19,6.48-8.37,10.36-12.05c1.9-1.8,3.52-3.99,5.45-5.82
		c7.58-7.14,15.61-13.72,24.45-19.26c7.38-4.63,15.06-8.7,23.14-12.04c10.62-4.39,21.56-7.67,32.88-9.64
		c20.99-3.66,41.8-3.3,62.28,3.12c9.35,2.93,18.06,7.17,25.75,13.33c5.98,4.79,10.84,10.54,14.33,17.38
		c0.34,0.66,0.98,1.28,0.65,2.29c-16.39-10.55-34.09-17.01-53.59-18.1C473.88,270.12,470.37,270.04,466.87,270.49z"/>
	<path class="st0" d="M621.31,422.29c6.38,1.31,11.12,4.43,14.25,9.85c1.84,3.18,2.86,6.65,3.25,10.27
		c0.88,8.18-0.87,15.73-5.99,22.26c-3.3,4.21-7.6,6.93-12.96,7.99c-4.24,0.84-8.51,1.2-12.79,1.26c-9.57,0.13-19.14,0.09-28.71,0.1
		c-1.84,0-1.87-0.03-1.89-1.87c-0.02-3.41-0.01-6.81-0.01-10.22c0-27.66,0-55.31,0.01-82.97c0-3.18-0.38-2.76,2.65-2.77
		c7.54-0.02,15.09,0,22.63,0c3.81,0,7.62,0.1,11.41,0.59c4.67,0.6,9.1,1.91,12.86,4.89c3.91,3.09,6.29,7.17,7.66,11.94
		c1.55,5.42,1.6,10.79-0.09,16.18c-1.64,5.23-5.06,8.86-9.94,11.17C622.93,421.3,622.2,421.57,621.31,422.29z M592.05,445.02
		c0,4.54-0.01,9.08,0,13.62c0.01,1.88,0.03,1.92,1.79,1.91c4.22-0.01,8.43-0.04,12.65-0.09c2.2-0.02,4.37-0.39,6.45-1.06
		c3.63-1.17,6.36-3.35,8.07-6.88c1.79-3.69,2.1-7.5,1.18-11.37c-1.33-5.57-4.75-9.3-10.44-10.66c-1.57-0.38-3.19-0.57-4.79-0.77
		c-4.36-0.55-8.75-0.23-13.12-0.29c-1.73-0.02-1.77,0.03-1.78,1.72C592.04,435.78,592.05,440.4,592.05,445.02z M599.83,389.51
		c-2.02,0-3.8-0.01-5.59,0c-2.17,0.01-2.17,0.02-2.19,2.31c-0.01,1.3,0,2.6,0,3.89c0,6.65-0.01,13.3,0.01,19.95
		c0,1.85,0.04,1.88,1.87,1.88c2.35,0.01,4.71,0.05,7.05-0.07c3.56-0.19,7.11-0.47,10.51-1.76c3.6-1.36,6.01-3.78,6.84-7.59
		c0.68-3.13,0.62-6.28-0.16-9.4c-1.03-4.15-3.62-6.74-7.74-7.9C606.88,389.83,603.23,389.76,599.83,389.51z"/>
	<path class="st1" d="M428.84,562.11c-0.34,0.19-0.66,0.46-1.03,0.57c-2.65,0.81-5.07,2.19-7.73,2.99
		c-14.67,4.41-29.59,7-44.98,6.22c-7.63-0.39-15.12-1.67-22.57-3.42c-3.02-0.71-5.74-2.37-8.89-2.52
		c-3.18-2.25-7.19-2.67-10.46-4.69c-3.07-1.9-6.22-3.7-9.14-5.85c-2.37-1.75-5.04-3.17-7.12-5.2c-2.02-1.97-4.25-3.72-6.14-5.84
		c-4.17-4.67-8.41-9.28-11.55-14.75c-1.82-3.18-3.63-6.36-5.05-9.77c-1.36-3.27-2.81-6.51-3.96-9.87c-1.54-4.51-2.28-9.22-3.13-13.9
		c-0.36-1.99-0.31-2.05,1.73-2.03c10.87,0.15,21.73,0.35,32.6,0.46c1.23,0.01,1.74,0.51,2.02,1.55c1.46,5.4,3.81,10.43,6.46,15.32
		c5.21,9.62,11.95,18.03,20.12,25.32c6.36,5.67,13.38,10.33,21.04,13.98c5.87,2.8,11.94,5.09,18.26,6.74
		c12.57,3.28,25.34,4.49,38.29,4.24c0.38-0.01,0.77,0.03,1.15,0.05C428.81,561.85,428.82,561.98,428.84,562.11z"/>
	<path class="st1" d="M489.52,416.82c-1.49-4.43-4.25-7.61-6.38-11.17c-1.72-2.88-3.94-5.51-6.53-7.72
		c-1.94-1.65-3.86-3.46-6.1-4.57c-1.79-0.89-3.17-2.33-5.03-3.09c-1.12-0.46-1.92-1.44-1.91-3c0.08-11.68,0.06-23.35,0.09-35.03
		c0-1.88,0.04-1.92,1.86-1.94c7.95-0.11,15.89-0.2,23.84-0.27c2.05-0.02,2.07,0.02,2.08,2.21c0.06,10.22,0.09,20.43,0.16,30.65
		c0.02,3.05-0.43,2.92,2.84,2.91c8.19-0.02,16.38-0.04,24.57-0.06c0.65,0,1.3,0,1.95,0.03c0.57,0.03,0.89,0.36,0.92,0.92
		c0.03,0.48,0.03,0.97,0.02,1.46c-0.06,7.62-0.13,15.24-0.2,22.87c-0.02,2.13-0.04,2.16-2.13,2.15c-8.19-0.04-16.38-0.04-24.57-0.18
		c-1.58-0.03-2.74,0.32-3.29,1.77C491.32,415.72,490.25,415.69,489.52,416.82z"/>
	<path class="st0" d="M707.94,448.66c0,7.79,0.01,15.57,0,23.36c0,1.98-0.03,2-1.99,2.01c-3.49,0.02-6.97,0.01-10.46,0
		c-2.13-0.01-2.15-0.02-2.15-2.08c-0.01-7.95,0-15.89,0-23.84c0-7.3,0.01-14.6-0.01-21.9c-0.01-3.12,0.4-2.77-2.91-2.79
		c-2.19-0.01-4.38-0.05-6.57,0.02c-1.13,0.03-1.59-0.31-1.57-1.51c0.06-3.24,0.08-6.49-0.01-9.73c-0.03-1.27,0.53-1.48,1.6-1.46
		c2.43,0.05,4.87,0.02,7.3,0.01c2.13-0.01,2.15-0.02,2.15-2.1c0.01-6.41,0-12.81,0-19.22c0-0.57,0.02-1.14,0-1.7
		c-0.03-0.81,0.32-1.15,1.15-1.15c4.05,0.02,8.11,0.04,12.16-0.01c1.15-0.01,1.31,0.58,1.3,1.52c-0.02,4.14-0.01,8.27-0.01,12.41
		c0,2.92,0.04,5.84-0.02,8.76c-0.02,1.17,0.38,1.55,1.55,1.52c2.59-0.07,5.19,0.02,7.78-0.04c1.08-0.02,1.62,0.18,1.59,1.44
		c-0.08,3.24-0.07,6.49-0.01,9.73c0.02,1.16-0.35,1.57-1.53,1.53c-2.59-0.08-5.19,0.05-7.78-0.05c-1.34-0.05-1.61,0.47-1.6,1.68
		C707.96,432.92,707.94,440.79,707.94,448.66z"/>
	<path class="st0" d="M734.77,386.59c4.65,0,9.03,0.03,13.4-0.02c1.48-0.02,1.2,0.97,1.2,1.81c0.01,6.41-0.01,12.81,0.01,19.22
		c0.01,3.63-0.44,3.09,3.04,3.13c2.19,0.03,4.38,0.03,6.57-0.01c0.91-0.02,1.3,0.28,1.29,1.24c-0.04,3.41-0.03,6.81,0,10.22
		c0.01,0.97-0.43,1.24-1.33,1.23c-2.76-0.03-5.52,0.01-8.27-0.02c-0.89-0.01-1.39,0.23-1.3,1.22c0.05,0.56,0.01,1.13,0.01,1.7
		c0,15,0,30.01,0,45.01c0,3.02,0.29,2.68-2.77,2.69c-3.24,0.01-6.49,0.01-9.73,0c-2.08-0.01-2.1-0.02-2.1-2.13
		c-0.01-11.68,0-23.36,0-35.04c0-3.89,0.01-7.79-0.01-11.68c-0.01-1.72-0.04-1.75-1.72-1.77c-2.51-0.02-5.03-0.05-7.54,0.01
		c-1.17,0.03-1.79-0.2-1.76-1.58c0.08-3.24,0.06-6.49,0.01-9.73c-0.02-1.07,0.41-1.41,1.43-1.39c2.43,0.05,4.87,0.02,7.3,0.01
		c2.27-0.01,2.28-0.01,2.28-2.2c0.01-6.41,0-12.81,0-19.22C734.77,388.51,734.77,387.71,734.77,386.59z"/>
	<path class="st0" d="M895.58,421.99c0-16.05,0-32.1,0-48.15c0-0.41,0-0.81,0-1.22c0.02-2.09,0.03-2.1,2.14-2.11
		c3.4-0.01,6.81-0.01,10.21,0c2.04,0.01,2.04,0.02,2.06,2.18c0,0.32,0,0.65,0,0.97c0,32.42,0,64.84,0,97.26c0,0.32,0,0.65,0,0.97
		c-0.02,2.1-0.02,2.11-2.12,2.12c-3.4,0.01-6.81,0.01-10.21,0c-2.06-0.01-2.08-0.02-2.08-2.18c-0.01-10.29,0-20.59,0-30.88
		C895.58,434.64,895.58,428.32,895.58,421.99z"/>
	<path class="st0" d="M874.09,422.38c0,16.22,0,32.43,0,48.65c0,0.57-0.02,1.14,0,1.7c0.04,0.88-0.23,1.32-1.23,1.31
		c-3.97-0.04-7.95-0.03-11.92-0.01c-0.84,0-1.17-0.35-1.14-1.15c0.02-0.57,0-1.13,0-1.7c0-32.59,0-65.19,0-97.78
		c0-3.33-0.3-2.85,2.81-2.87c3.32-0.02,6.65,0.04,9.97-0.03c1.19-0.03,1.63,0.39,1.51,1.54c-0.05,0.48-0.01,0.97-0.01,1.46
		C874.09,389.79,874.09,406.08,874.09,422.38z"/>
	<path class="st0" d="M787.41,419.94c1.43-2.07,1.87-3.93,2.94-5.55c2.12-3.2,5.14-4.63,8.59-5.43c5.07-1.17,9.89-0.03,14.6,1.89
		c1.08,0.44,1.22,0.96,0.73,2.04c-1.35,2.98-2.54,6.03-3.82,9.04c-0.76,1.8-1.07,1.97-2.87,0.93c-3.39-1.96-6.98-2.08-10.62-1.27
		c-4.23,0.94-6.39,4.08-7.62,7.92c-1.44,4.5-1.83,9.19-1.88,13.88c-0.09,9.32-0.04,18.64-0.05,27.96c0,0.57-0.01,1.13-0.01,1.7
		c0.01,0.73-0.39,0.98-1.07,0.98c-4.13-0.01-8.27-0.01-12.4,0.01c-0.84,0-1.17-0.36-1.13-1.17c0.02-0.49,0-0.97,0-1.46
		c0-19.45,0-38.91,0-58.36c0-0.08,0-0.16,0-0.24c0-2.56-0.15-2.37,2.36-2.37c3.49,0,6.97-0.01,10.46,0.01
		c1.74,0.01,1.77,0.04,1.79,1.71C787.43,414.57,787.41,417,787.41,419.94z"/>
	<path class="st0" d="M823.89,442.22c0-9.81,0-19.62,0-29.43c0-2.01,0.02-2.04,1.93-2.04c3.65-0.02,7.3,0.03,10.94-0.02
		c1.15-0.02,1.68,0.35,1.53,1.53c-0.04,0.32-0.01,0.65-0.01,0.97c0,19.38,0,38.75,0,58.13c0,3.08,0.07,2.66-2.56,2.67
		c-3.32,0.02-6.65,0.02-9.97,0c-1.82-0.01-1.86-0.03-1.86-1.89C823.89,462.16,823.89,452.19,823.89,442.22z"/>
	<path class="st0" d="M669.11,442.37c0,9.64,0,19.29,0,28.93c0,0.57-0.02,1.13-0.01,1.7c0.02,0.7-0.28,1.02-1,1.02
		c-4.05-0.01-8.1-0.01-12.16,0.01c-0.82,0-1.19-0.34-1.19-1.14c0-0.57-0.01-1.13-0.01-1.7c0-19.29,0-38.57,0-57.86
		c0-0.24,0-0.49,0-0.73c0.04-1.82,0.04-1.84,1.88-1.85c3.4-0.02,6.81-0.01,10.21,0c2.41,0,2.26-0.14,2.26,2.21
		C669.11,422.76,669.11,432.56,669.11,442.37z"/>
	<path class="st0" d="M830.17,392.38c-4.52,0.64-8.7-4.9-8.25-9.89c0.45-4.98,4.43-8.63,9.94-8.23c4.74,0.35,8.62,4.91,8.34,9.55
		C839.92,388.46,835.56,393.01,830.17,392.38z"/>
	<path class="st0" d="M661.7,392.42c-5.5,0.22-8.95-4.03-8.89-9.33c0.07-5.93,4.53-8.92,9.45-8.85c4.35,0.06,9,4.15,8.78,9.37
		C670.82,388.73,666.45,392.66,661.7,392.42z"/>
	<path class="st1" d="M466.87,270.49c3.51-0.45,7.02-0.37,10.52,0C473.87,270.49,470.37,270.49,466.87,270.49z"/>
	<path class="st2" d="M592.05,445.02c0-4.62-0.01-9.24,0.01-13.86c0.01-1.69,0.05-1.75,1.78-1.72c4.37,0.06,8.76-0.26,13.12,0.29
		c1.6,0.2,3.22,0.4,4.79,0.77c5.69,1.36,9.11,5.1,10.44,10.66c0.93,3.87,0.61,7.68-1.18,11.37c-1.71,3.52-4.44,5.71-8.07,6.88
		c-2.09,0.67-4.25,1.04-6.45,1.06c-4.22,0.04-8.43,0.08-12.65,0.09c-1.76,0-1.79-0.03-1.79-1.91
		C592.04,454.1,592.05,449.56,592.05,445.02z"/>
	<path class="st2" d="M599.83,389.51c3.4,0.25,7.05,0.32,10.6,1.32c4.12,1.16,6.7,3.76,7.74,7.9c0.78,3.12,0.84,6.27,0.16,9.4
		c-0.83,3.81-3.24,6.23-6.84,7.59c-3.39,1.28-6.95,1.57-10.51,1.76c-2.35,0.12-4.7,0.08-7.05,0.07c-1.83-0.01-1.87-0.03-1.87-1.88
		c-0.02-6.65-0.01-13.3-0.01-19.95c0-1.3-0.01-2.6,0-3.89c0.01-2.29,0.02-2.3,2.19-2.31C596.02,389.5,597.81,389.51,599.83,389.51z"
		/>
</g>
<g>
	<path class="st0" d="M2014.68,429.51c0.1,0.13,0.25,0.26,0.3,0.41c2.19,6.93,5.59,13.26,9.69,19.22c1.23,1.79,2.06,3.76,3.15,5.6
		c0.7,1.18,0.47,2.11-0.33,3.13c-2.58,3.29-5.85,5.75-9.25,8.12c-3.19,2.22-6.68,3.79-10.27,5.16c-13.53,5.16-27.42,6.17-41.68,3.92
		c-4.13-0.65-8.16-1.53-12.08-2.89c-5.99-2.08-11.58-4.99-16.64-8.83c-2.79-2.11-5.54-4.34-7.98-6.83
		c-6.01-6.13-11.06-13.01-14.88-20.74c-2.26-4.58-4.16-9.41-4.98-14.34c-0.78-4.7-1.6-9.52-1.5-14.38c0.05-2.17-0.05-4.35-0.04-6.52
		c0.11-48.43,0.23-96.86,0.35-145.28c0.01-4.56-0.3-3.94,3.78-3.42c7.39,0.94,14.25,3.35,19.88,8.42c4.89,4.4,7.55,10.15,9.22,16.39
		c1.33,4.99,1.71,10.1,1.74,15.24c0.08,15.52,0.13,31.03,0.22,46.55c0.01,1.06-0.23,2.16,0.31,3.31c4.15-0.61,8.14-1.9,12.19-2.96
		c6.77-1.78,13.59-3.22,20.61-3.6c10.59-0.57,20.67,1.44,30.42,5.48c6.54,2.71,12.66,6.14,18.33,10.34
		c7.99,5.92,13.78,13.61,17.62,22.76c3.75,8.92,5.51,18.35,7.18,27.82c1.04,5.89,2.12,11.77,3.95,17.51
		c3.89,12.2,12.24,19.4,24.42,22.47c2.46,0.62,5.02,0.89,7.54,1.26c2.33,0.34,2.37,0.3,2.38,2.77c0.06,9.69,0.11,19.37,0.14,29.06
		c0.01,2.25-0.04,2.29-2.35,2.21c-3.36-0.12-6.7-0.43-10.03-0.87c-7.95-1.06-15.42-3.55-22.43-7.41
		c-10.07-5.54-18.52-12.98-24.74-22.63c-4.38-6.78-7.85-14.09-9.75-22.05c-0.38-1.59-0.3-2.99,0.27-4.56
		c8.27-22.92-3.49-47.93-26.36-56.21c-26.13-9.45-54.38,7.59-58.23,35.13c-3.45,24.66,14.19,47.44,38.83,49.73
		c15.79,1.47,28.84-4.16,38.98-16.42c0.56-0.68,1.13-1.35,1.71-2.01C2014.43,429.5,2014.57,429.52,2014.68,429.51z"/>
	<path class="st0" d="M2159.17,471.48c-2.05,3.95-3.98,7.98-6.19,11.86c-3.09,5.43-6.27,10.82-9.69,16.07
		c-4.38,6.73-9,13.28-13.97,19.57c-6.17,7.81-12.78,15.26-19.91,22.22c-9.03,8.82-18.73,16.83-28.98,24.19
		c-4.78,3.43-9.87,6.37-14.75,9.64c-4.19,2.8-8.71,5.01-13.09,7.38c-3.89,2.11-7.94,4.2-12.19,5.76c-2.65,0.97-5.17,2.41-7.85,3.33
		c-4.16,1.44-8.3,2.96-12.41,4.49c-5.26,1.96-10.67,3.36-16.03,4.87c-6.96,1.96-14.13,3.27-21.31,4.38
		c-14.69,2.26-29.45,3.17-44.32,2.47c-10.19-0.48-20.23-1.91-30.25-3.81c-4.8-0.91-9.56-1.95-14.2-3.42
		c-7.09-2.25-13.98-4.94-20.66-8.3c-6.78-3.41-13.28-7.2-19.12-11.99c-5.91-4.84-11.41-10.1-15.82-16.47
		c-2.76-3.99-5.32-8.04-7.42-12.41c-0.14-0.29-0.27-0.48,0.1-1c2.32,1.42,4.67,2.85,7.02,4.29c13.39,8.19,27.72,14.22,42.93,18.05
		c18.63,4.7,37.55,5.88,56.65,4.05c15.26-1.46,30.1-4.91,44.51-10.13c14.38-5.21,28.02-11.95,41.03-20.04
		c7.36-4.58,14.35-9.64,21.19-14.9c3.13-2.4,6.08-5.13,9.1-7.72c4.7-4.04,9-8.49,13.44-12.78c3.17-3.06,5.79-6.69,8.71-10.03
		c6.61-7.57,12.08-15.98,17.74-24.25c1.29-1.88,2.46-3.93,3.49-5.97c0.69-1.36,1.46-1.27,2.54-1.25c7.31,0.18,14.62,0.32,21.94,0.5
		c11.76,0.28,23.52,0.57,35.27,0.87C2157.42,471.04,2158.23,470.86,2159.17,471.48z"/>
	<path class="st1" d="M1977.32,155.25c1.62-0.95,3.17-2.03,4.87-2.82c10.04-4.71,20.42-8.38,31.31-10.62
		c19.96-4.09,39.85-3.64,59.67,0.84c11.31,2.56,22.19,6.39,32.69,11.35c19.34,9.12,36.4,21.37,51.04,36.94
		c11.62,12.36,21.1,26.21,28.1,41.67c6.38,14.07,10.64,28.77,12.1,44.2c0.39,4.16,0.72,3.68-3.33,3.8
		c-15.11,0.45-30.22,0.83-45.33,1.23c-0.49,0.01-0.99,0.04-1.48-0.02c-0.69-0.09-1.22-0.19-1.26-1.21
		c-0.17-4.24-2.04-8.07-3.28-12.02c-0.85-2.72-1.66-5.49-2.46-8.21c-0.79-2.69-1.92-5.23-2.91-7.79c-2.36-6.1-4.77-12.22-7.93-17.96
		c-3.29-5.97-6.92-11.75-10.64-17.48c-3.59-5.52-8.05-10.3-12.28-15.29c-1.46-1.72-3.19-3.24-4.89-4.73
		c-3.47-3.05-6.89-6.19-10.54-9.01c-7.8-6.02-16.28-10.96-25.25-15.05c-16.3-7.43-33.44-11.86-51.13-14.36
		c-11.46-1.63-22.98-2.4-34.54-2.69c-0.78-0.02-1.56-0.1-2.34-0.16C1977.43,155.67,1977.38,155.46,1977.32,155.25z"/>
	<path class="st0" d="M2021.25,195.29c-8.42,0.27-16.73,1.41-24.94,3.27c-5.65,1.28-11.22,2.81-16.72,4.72
		c-11.96,4.15-23.38,9.38-34.17,15.97c-14.92,9.1-28.14,20.32-39.84,33.26c-7.71,8.52-14.43,17.82-20.16,27.8
		c-0.71,1.24-1.37,1.88-2.9,1.84c-15.41-0.41-30.83-0.73-46.24-1.09c-0.38-0.01-0.76-0.12-1.34-0.21c0.36-1.36,0.58-2.59,1.53-3.68
		c0.68-0.77,0.98-1.86,1.45-2.81c5.17-10.44,11.55-20.15,18.6-29.37c3.91-5.11,7.89-10.2,12.62-14.69c2.32-2.2,4.29-4.87,6.65-7.09
		c9.23-8.7,19.02-16.72,29.79-23.47c9-5.64,18.36-10.6,28.19-14.67c12.94-5.35,26.28-9.34,40.06-11.75
		c25.57-4.46,50.94-4.02,75.89,3.8c11.39,3.57,22.01,8.74,31.38,16.24c7.29,5.84,13.2,12.84,17.46,21.18
		c0.41,0.8,1.19,1.56,0.79,2.79c-19.97-12.86-41.54-20.73-65.3-22.06C2029.8,194.83,2025.52,194.73,2021.25,195.29z"/>
	<path class="st1" d="M1974.91,550.62c-0.42,0.24-0.81,0.56-1.26,0.7c-3.23,0.99-6.18,2.67-9.42,3.64
		c-17.88,5.37-36.06,8.53-54.8,7.58c-9.3-0.47-18.43-2.03-27.5-4.17c-3.67-0.87-6.99-2.89-10.83-3.07
		c-3.88-2.74-8.76-3.25-12.74-5.71c-3.74-2.32-7.58-4.51-11.13-7.13c-2.89-2.13-6.14-3.86-8.67-6.34c-2.46-2.41-5.17-4.54-7.48-7.11
		c-5.09-5.69-10.25-11.31-14.07-17.97c-2.22-3.88-4.42-7.74-6.15-11.91c-1.66-3.99-3.43-7.93-4.82-12.02
		c-1.88-5.5-2.78-11.24-3.82-16.93c-0.44-2.43-0.38-2.5,2.11-2.47c13.24,0.18,26.48,0.43,39.73,0.56c1.5,0.01,2.12,0.62,2.47,1.89
		c1.78,6.58,4.65,12.71,7.87,18.67c6.34,11.72,14.56,21.96,24.51,30.85c7.74,6.91,16.3,12.59,25.64,17.04
		c7.15,3.41,14.55,6.2,22.25,8.21c15.32,3.99,30.88,5.47,46.66,5.17c0.47-0.01,0.94,0.04,1.41,0.06
		C1974.88,550.3,1974.89,550.46,1974.91,550.62z"/>
	<path class="st1" d="M2048.85,373.59c-1.81-5.39-5.18-9.27-7.77-13.61c-2.1-3.51-4.8-6.71-7.95-9.4c-2.36-2.01-4.7-4.21-7.43-5.57
		c-2.18-1.08-3.87-2.84-6.13-3.77c-1.37-0.56-2.34-1.76-2.33-3.66c0.1-14.23,0.07-28.46,0.1-42.68c0.01-2.29,0.05-2.34,2.26-2.37
		c9.68-0.13,19.36-0.24,29.05-0.33c2.5-0.02,2.52,0.02,2.54,2.69c0.07,12.45,0.11,24.9,0.19,37.35c0.02,3.72-0.53,3.55,3.46,3.54
		c9.98-0.03,19.96-0.05,29.94-0.08c0.79,0,1.58,0,2.37,0.04c0.7,0.03,1.08,0.44,1.12,1.12c0.03,0.59,0.03,1.18,0.03,1.78
		c-0.08,9.29-0.16,18.58-0.25,27.86c-0.03,2.59-0.05,2.63-2.59,2.62c-9.98-0.04-19.96-0.05-29.94-0.22
		c-1.92-0.03-3.34,0.39-4.01,2.16C2051.05,372.25,2049.74,372.21,2048.85,373.59z"/>
	<path class="st1" d="M2021.25,195.29c4.27-0.55,8.55-0.46,12.82,0C2029.79,195.28,2025.52,195.28,2021.25,195.29z"/>
</g>
</svg>
